<mxfile host="app.diagrams.net" modified="2023-05-22T08:36:26.216Z" agent="Mozilla/5.0 (Windows NT 10.0; Win64; x64) AppleWebKit/537.36 (KHTML, like Gecko) Chrome/113.0.0.0 Safari/537.36" etag="s2LDHOHAJVS2xVagTn5z" version="21.2.9" type="device">
  <diagram id="C5RBs43oDa-KdzZeNtuy" name="Page-1">
    <mxGraphModel dx="1050" dy="579" grid="1" gridSize="10" guides="1" tooltips="1" connect="1" arrows="1" fold="1" page="1" pageScale="1" pageWidth="827" pageHeight="1169" math="0" shadow="0">
      <root>
        <mxCell id="WIyWlLk6GJQsqaUBKTNV-0" />
        <mxCell id="WIyWlLk6GJQsqaUBKTNV-1" parent="WIyWlLk6GJQsqaUBKTNV-0" />
        <mxCell id="PMyqxlVUR5hIEJ5PWOn3-4" value="charmander&amp;nbsp;" style="swimlane;fontStyle=1;align=center;verticalAlign=top;childLayout=stackLayout;horizontal=1;startSize=26;horizontalStack=0;resizeParent=1;resizeParentMax=0;resizeLast=0;collapsible=1;marginBottom=0;whiteSpace=wrap;html=1;" vertex="1" parent="WIyWlLk6GJQsqaUBKTNV-1">
          <mxGeometry x="204" y="280" width="420" height="190" as="geometry" />
        </mxCell>
        <mxCell id="PMyqxlVUR5hIEJ5PWOn3-5" value="+ name: string&lt;br&gt;&lt;br&gt;+ strnegth : string&lt;br&gt;&lt;br&gt;+&amp;nbsp;weakness : string" style="text;strokeColor=none;fillColor=none;align=left;verticalAlign=top;spacingLeft=4;spacingRight=4;overflow=hidden;rotatable=0;points=[[0,0.5],[1,0.5]];portConstraint=eastwest;whiteSpace=wrap;html=1;" vertex="1" parent="PMyqxlVUR5hIEJ5PWOn3-4">
          <mxGeometry y="26" width="420" height="84" as="geometry" />
        </mxCell>
        <mxCell id="PMyqxlVUR5hIEJ5PWOn3-6" value="" style="line;strokeWidth=1;fillColor=none;align=left;verticalAlign=middle;spacingTop=-1;spacingLeft=3;spacingRight=3;rotatable=0;labelPosition=right;points=[];portConstraint=eastwest;strokeColor=inherit;" vertex="1" parent="PMyqxlVUR5hIEJ5PWOn3-4">
          <mxGeometry y="110" width="420" height="8" as="geometry" />
        </mxCell>
        <mxCell id="PMyqxlVUR5hIEJ5PWOn3-7" value="+ Charmander(name :string&amp;nbsp;,strength : string&amp;nbsp;, weakness :string&amp;nbsp;)&lt;br&gt;&lt;br&gt;+&amp;nbsp;&amp;nbsp;battleCry() : Void" style="text;strokeColor=none;fillColor=none;align=left;verticalAlign=top;spacingLeft=4;spacingRight=4;overflow=hidden;rotatable=0;points=[[0,0.5],[1,0.5]];portConstraint=eastwest;whiteSpace=wrap;html=1;" vertex="1" parent="PMyqxlVUR5hIEJ5PWOn3-4">
          <mxGeometry y="118" width="420" height="72" as="geometry" />
        </mxCell>
        <mxCell id="PMyqxlVUR5hIEJ5PWOn3-8" value="Pokemone" style="rounded=0;whiteSpace=wrap;html=1;" vertex="1" parent="WIyWlLk6GJQsqaUBKTNV-1">
          <mxGeometry x="324" y="150" width="180" height="60" as="geometry" />
        </mxCell>
        <mxCell id="PMyqxlVUR5hIEJ5PWOn3-9" value="" style="endArrow=classic;html=1;rounded=0;exitX=0.5;exitY=1;exitDx=0;exitDy=0;entryX=0.5;entryY=0;entryDx=0;entryDy=0;" edge="1" parent="WIyWlLk6GJQsqaUBKTNV-1" source="PMyqxlVUR5hIEJ5PWOn3-8" target="PMyqxlVUR5hIEJ5PWOn3-4">
          <mxGeometry width="50" height="50" relative="1" as="geometry">
            <mxPoint x="390" y="430" as="sourcePoint" />
            <mxPoint x="440" y="380" as="targetPoint" />
          </mxGeometry>
        </mxCell>
      </root>
    </mxGraphModel>
  </diagram>
</mxfile>
